<svg version="1.0" xmlns="http://www.w3.org/2000/svg" width="682.667" height="682.667" viewBox="0 0 512 512"><path d="M239 116.6c-34.8 2.3-61.5 10.1-82.5 23.9-8.8 5.8-21.5 18.9-26.5 27.4-6.8 11.4-10.1 21.8-10.7 33.6-.6 10-.6 10-4.5 14.3-11.4 12.4-9.9 25.3 3.4 29.8 4.2 1.4 4.7 1.8 3.8 3.5-.6 1-1.5 4.4-2.1 7.4-1.4 7.5.8 16.1 6 23.5l3.9 5.6-2.5 2.9c-7.2 8.6-9.5 20.8-6 31 3.7 10.8 15.6 22.1 32.1 30.3 11.7 5.8 19.6 8.6 35.4 12.6 23.4 5.8 35.8 7.1 68.2 7 31 0 45.1-1.5 66.5-7 36.2-9.2 61.1-25.1 67.2-42.9 3.5-10.2 1.2-22.4-6-31l-2.5-2.9 3.9-5.6c4.3-6.2 7.4-16.4 6.4-21.1-.6-2.6-.2-3.5 2.7-6.3 8.1-7.8 7.6-22.9-1-30.9-2.7-2.6-2.9-3.2-2.1-6 1.6-5.5 1-17.8-1.2-25.7-10.4-37.6-49.1-64.3-103.4-71.5-11.4-1.4-38.9-2.5-48.5-1.9zm41.8 10.5c55.3 6 93.6 31.8 101.8 68.5 3 13.6.2 23.4-9.2 32.8-28.7 28.7-101.4 42.2-164.9 30.5-38.5-7.1-68.5-22.7-77.5-40.5-3.4-6.7-3.5-19.7-.1-29.9 11.1-33.8 44.9-55.8 94.1-61.4 11-1.2 44.6-1.3 55.8 0zm-156.7 98.6c1.3 2.1 4.6 6.2 7.4 9.2 4.3 4.7 4.7 5.3 2.5 4.8-1.4-.3-5-1.1-8-1.8-10.2-2.1-11.7-4.4-7.5-11.4 1.4-2.5 2.8-4.5 3-4.5.2 0 1.4 1.7 2.6 3.7zm265.5 4.9c2.1 3.2 2.1 10.7 0 13.9-2.1 3.2-8.2 4.8-15.7 3.9-3.2-.4-6.2-1-6.4-1.4-.3-.4 1.9-2.6 4.8-4.8 3-2.2 7.4-6.3 9.8-9.1 2.4-2.7 4.7-5 5.1-5.1.4 0 1.5 1.2 2.4 2.6zM172 259.3c8 2.9 16.5 5.3 34 9.4 4.1.9-25.5 6.4-31.2 5.8-12.1-1.4-21.2-9.5-24.6-21.7l-1-3.7 6.6 3.3c3.7 1.8 11 4.9 16.2 6.9zm-33.6-7.2c1.4 1.1 2.6 2.8 2.6 3.8 0 3.5 6.1 13.9 10.4 17.9 11.4 10.5 21.8 12.2 45.1 7.6 16-3.1 32.4-3.8 36.4-1.5 1.4.8 5.3 3.8 8.8 6.7 15.5 13.1 25.3 13.5 40.3 1.4 4.1-3.3 10.6-7.6 14.4-9.5 8.5-4.3 14-4.5 23.8-1 10.9 3.9 18.6 2.9 25.1-3.3 3.5-3.3 7.3-10.5 8.2-15.5.8-4.2 1.1-4.3 10.5-2.2 3.6.8 9.1 1.4 12.3 1.5 7.1 0 7.3 1 1.1 7.9-27.5 30.6-112.8 44.4-182.4 29.5-27.2-5.8-49.7-16.1-61.7-28.1-4.8-4.7-5.2-7-2.7-13.3 1.8-4.6 3.8-5.1 7.8-1.9zm203.3 10.6c-.9 1.5-2.7 3.9-4.1 5.2-2.2 2.1-3.2 2.3-8 1.8-6-.6-12.2-3.2-9.6-4 15.5-5.1 22.6-7.1 22.8-6.5.2.4-.3 1.9-1.1 3.5zM286 272.8c-1.3.9-4.3 3.2-6.5 4.9-12.4 10-16.4 11.1-24.3 6.8-2.7-1.5-7-4.8-9.5-7.3l-4.6-4.7 11.2.3c6.2.1 15.9-.1 21.7-.6 15.6-1.4 14.9-1.4 12 .6zm-145.7 21.5c2.1 1.6 5.7 8.6 13.2 25.7 5.7 12.9 10.2 23.6 10 23.8-1.1 1.1-17.6-9.1-23.3-14.3-9.7-8.9-13.4-18.6-10.1-27.2 1.2-3.2 5.9-10.3 6.8-10.3.3 0 1.9 1 3.4 2.3zm238 1.4c8 11.7 5.9 22.5-6.7 34-5.4 5-22.6 15.6-22.6 14 0-2.3 21.7-48.6 23.3-49.9 3-2.4 3.1-2.3 6 1.9zM349 320.2c-4 9-7.9 17.5-8.7 19.1l-1.4 2.8-6-4.7c-7.2-5.5-21.4-14.5-25.8-16.4-1.7-.7-3.1-1.5-3.1-1.9 0-.3 3.9-1.4 8.8-2.3 11.6-2.3 27.1-6.8 35.7-10.5 3.9-1.6 7.2-2.8 7.3-2.7.2.1-2.9 7.6-6.8 16.6zm-180.8-12c4.2 1.6 13.5 4.4 20.7 6.2 7.2 1.8 13.3 3.5 13.6 3.7.2.2-3.8 3-8.8 6.1-5.1 3.2-12 7.8-15.3 10.3l-6.2 4.5-7.2-16.3c-9.3-20.8-8.7-19.2-6.4-18.3 1 .4 5.4 2.1 9.6 3.8zm124.7 16.5c8.7 3.5 18.8 9.3 30.6 17.6l9.9 7.1-2.9 1.2c-4.9 2-25.2 6.2-38.5 8-15.2 2.1-53.6 2.4-68.5.5-12.9-1.6-32.1-5.4-41-8.2l-7-2.1 3-2.5c7.4-6 22.4-15.9 30.8-20.3l9.2-4.8 34 .5c33.3.5 34.1.6 40.4 3z"/><path d="M253.9 144.1c-2.2 4.3.1 6.4 9.5 8.8 12.5 3.1 15.6 2.6 15.6-2.5 0-3.1-1.4-3.8-11.2-6.3-10.9-2.6-12.4-2.6-13.9 0zM210.6 152.6c-2.7 2.6-1.9 4.3 5.6 12 5.5 5.7 7.8 7.4 9.9 7.4 3.2 0 5.4-2.9 4.4-5.9-.9-2.9-14.1-15.1-16.3-15.1-1.1 0-2.8.7-3.6 1.6zM286.7 170.4c-9.2 3.9-10 4.5-9.5 8.1.5 4.6 3.4 4.7 13.3.6 9.5-3.9 11.9-6.2 10.4-9.9-1.2-3.1-4.7-2.8-14.2 1.2zM168.6 176.4c-8.6 3.4-10.9 5.7-9.5 9.3 1.2 3.1 4 2.9 14.1-.8 10.5-4 12.9-6.6 9.2-10.3-2.2-2.2-4.7-1.9-13.8 1.8zM330.3 175.2c-1.3 2.3-3.2 20.1-2.3 21.9 2.1 3.8 7.5 2.9 8.5-1.4 1.7-8 2.5-19 1.4-20.3-1.4-1.7-6.5-1.9-7.6-.2zM236.9 181.1c-2.2 4.3.1 6.4 9.5 8.8 12.5 3.1 15.6 2.6 15.6-2.5 0-3.1-1.4-3.8-11.2-6.3-10.9-2.6-12.4-2.6-13.9 0zM188.6 189.6c-2.3 2.2-2 5.1.7 6.7 1.2.8 6.3 2.3 11.4 3.2 10.1 2 12.3 1.5 12.3-3 0-3.3-1.6-4.2-11.8-6.5-11-2.4-10.7-2.4-12.6-.4zM286 193.5c-2.5 3.1-.3 5.9 9.1 11.4 9.4 5.6 10.8 5.8 13.2 1.9 1.7-2.6.1-4.6-8-9.8-8-5.1-12.1-6.1-14.3-3.5zM221.7 209.4c-9.2 3.9-10 4.5-9.5 8.1.5 4.6 3.4 4.7 13.3.6 9.5-3.9 11.9-6.2 10.4-9.9-1.2-3.1-4.7-2.8-14.2 1.2zM266.2 222.1c-7.4 2.4-9.5 3.5-10.4 5.5-1 2.1-.8 2.8 1 4.6l2.1 2.2 9.3-2.9c10-3.1 12.8-4.8 12.8-7.6 0-1.6-3.6-5-5-4.8-.3 0-4.7 1.4-9.8 3z"/></svg>