<svg version="1.0" xmlns="http://www.w3.org/2000/svg" width="141.333" height="141.333" viewBox="0 0 106 106"><path d="M33.4 18c-6.1 2.1-11.7 5.6-16.3 10.1-3.5 3.5-8.7 13.5-9.3 17.8-.5 3.7 1.9 3.6 2.7-.1 2.1-9.5 9.5-18.5 19.2-23.3 5.2-2.6 6.8-2.9 15.8-3 8.8 0 10.7.3 15.5 2.6 3 1.4 7.6 4.5 10.2 6.8 4.9 4.4 5.8 4.8 5.8 2.9 0-2.3-8.4-9-15-12.2-5.5-2.6-7.8-3.1-15-3.2-5.9-.1-10.1.4-13.6 1.6z"/><path d="M39.3 32c-3.8 6.9-4.4 7.5-9.3 8.3-1.4.3-4.4.8-6.7 1.2-2.4.4-4.5 1.1-4.9 1.6-1.4 2.4-1 4.9 1.2 7 1.7 1.6 2.1 2.6 1.3 3.5-.6.7-.9 2.5-.7 4.1.4 3.8 3.3 4.2 5.2.6l1.4-2.8.7 2.7c.4 1.5.4 4.6 0 7-1.1 7.3-1.2 8.2-.3 10 1.2 2.6 4.2 2.2 11.5-1.2 3.4-1.6 6.8-3 7.3-3 .6 0 3.7 1.3 7 3 3.3 1.6 6.8 3 7.8 3 2.9 0 4.4-2.5 3.8-6.2-2-13.3-2.3-11.7 3.8-17.8 8.3-8 7.5-10.4-4.1-12.2-3.7-.5-7.3-1.4-8-2-.6-.5-2.4-3.3-3.8-6.1-3.6-6.9-4.3-7.7-7.1-7.7-1.9 0-3.1 1.4-6.1 7zm-15 22.7c.3.5.1 1.9-.4 3.2-1.2 3-3.1 1.5-2.3-1.7.6-2.2 1.9-2.9 2.7-1.5zM83 29.2c-2.4.9-4.6 4.4-5.5 8.7-.7 3.1-.5 3.3 1.1 2.6 1.1-.4 5.3-1.1 9.5-1.5 8.1-.7 11.5-2.4 14.3-7.2.9-1.4 1.6-2.8 1.6-3 0-.6-19.1-.3-21 .4zM4.7 52.7c-1.1 1-.8 11.1.3 11.8.7.4.9-.3.6-1.9-.3-1.4-.1-2.6.3-2.6s1.6-.7 2.7-1.5c1.8-1.4 1.8-1.5-.6-1.2-1.6.1-2.5-.3-2.5-1.3 0-.8 1.1-2 2.5-2.7l2.5-1.3H7.9c-1.4 0-2.9.3-3.2.7zM13 55.9c-1 2-.4 7.1.9 7.1 2.2 0 4.2-2.8 3.9-5.5-.4-3.6-3.2-4.5-4.8-1.6zm3.5 3c-.3 1.2-1.1 2.1-1.6 2.1-1 0-1.2-4.3-.2-5.3 1.2-1.3 2.5 1 1.8 3.2z"/><path d="M78.5 66.8C76 73 68.4 80.5 61.2 83.8c-5 2.4-6.9 2.7-15.7 2.7-8.9 0-10.6-.3-15.5-2.8-3-1.5-6.7-3.8-8.2-5.2-1.9-1.7-2.9-2.1-3.4-1.3-1.1 1.7 6 7.4 12.5 10 4.4 1.7 7.7 2.2 15.1 2.3 8.6 0 10.1-.3 16-3.1 9.6-4.5 18.5-14 20.4-21.7 1.1-4.6-1.7-3.2-3.9 2.1z"/></svg>