<?xml version="1.0" standalone="no"?>
<!DOCTYPE svg PUBLIC "-//W3C//DTD SVG 20010904//EN"
 "http://www.w3.org/TR/2001/REC-SVG-20010904/DTD/svg10.dtd">
<svg version="1.0" xmlns="http://www.w3.org/2000/svg"
 width="106.000000pt" height="106.000000pt" viewBox="0 0 106.000000 106.000000"
 preserveAspectRatio="xMidYMid meet">
<metadata>
Created by potrace 1.14, written by Peter Selinger 2001-2017
</metadata>
<g transform="translate(0.000000,106.000000) scale(0.100000,-0.100000)"
fill="#000000" stroke="none">
<path d="M334 880 c-61 -21 -117 -56 -163 -101 -35 -35 -87 -135 -93 -178 -5
-37 19 -36 27 1 21 95 95 185 192 233 52 26 68 29 158 30 88 0 107 -3 155 -26
30 -14 76 -45 102 -68 49 -44 58 -48 58 -29 0 23 -84 90 -150 122 -55 26 -78
31 -150 32 -59 1 -101 -4 -136 -16z"/>
<path d="M393 740 c-38 -69 -44 -75 -93 -83 -14 -3 -44 -8 -67 -12 -24 -4 -45
-11 -49 -16 -14 -24 -10 -49 12 -70 17 -16 21 -26 13 -35 -6 -7 -9 -25 -7 -41
4 -38 33 -42 52 -6 l14 28 7 -27 c4 -15 4 -46 0 -70 -11 -73 -12 -82 -3 -100
12 -26 42 -22 115 12 34 16 68 30 73 30 6 0 37 -13 70 -30 33 -16 68 -30 78
-30 29 0 44 25 38 62 -20 133 -23 117 38 178 83 80 75 104 -41 122 -37 5 -73
14 -80 20 -6 5 -24 33 -38 61 -36 69 -43 77 -71 77 -19 0 -31 -14 -61 -70z
m-150 -227 c3 -5 1 -19 -4 -32 -12 -30 -31 -15 -23 17 6 22 19 29 27 15z"/>
<path d="M830 768 c-24 -9 -46 -44 -55 -87 -7 -31 -5 -33 11 -26 11 4 53 11
95 15 81 7 115 24 143 72 9 14 16 28 16 30 0 6 -191 3 -210 -4z"/>
<path d="M47 533 c-11 -10 -8 -111 3 -118 7 -4 9 3 6 19 -3 14 -1 26 3 26 4 0
16 7 27 15 18 14 18 15 -6 12 -16 -1 -25 3 -25 13 0 8 11 20 25 27 l25 13 -26
0 c-14 0 -29 -3 -32 -7z"/>
<path d="M130 501 c-10 -20 -4 -71 9 -71 22 0 42 28 39 55 -4 36 -32 45 -48
16z m35 -30 c-3 -12 -11 -21 -16 -21 -10 0 -12 43 -2 53 12 13 25 -10 18 -32z"/>
<path d="M785 392 c-25 -62 -101 -137 -173 -170 -50 -24 -69 -27 -157 -27 -89
0 -106 3 -155 28 -30 15 -67 38 -82 52 -19 17 -29 21 -34 13 -11 -17 60 -74
125 -100 44 -17 77 -22 151 -23 86 0 101 3 160 31 96 45 185 140 204 217 11
46 -17 32 -39 -21z"/>
</g>
</svg>
