<?xml version="1.0" standalone="no"?>
<!DOCTYPE svg PUBLIC "-//W3C//DTD SVG 20010904//EN"
 "http://www.w3.org/TR/2001/REC-SVG-20010904/DTD/svg10.dtd">
<svg version="1.0" xmlns="http://www.w3.org/2000/svg"
 width="512.000000pt" height="512.000000pt" viewBox="0 0 512.000000 512.000000"
 preserveAspectRatio="xMidYMid meet">
<metadata>
Created by potrace 1.14, written by Peter Selinger 2001-2017
</metadata>
<g transform="translate(0.000000,512.000000) scale(0.100000,-0.100000)"
fill="#000000" stroke="none">
<path d="M2390 3954 c-348 -23 -615 -101 -825 -239 -88 -58 -215 -189 -265
-274 -68 -114 -101 -218 -107 -336 -6 -100 -6 -100 -45 -143 -114 -124 -99
-253 34 -298 42 -14 47 -18 38 -35 -6 -10 -15 -44 -21 -74 -14 -75 8 -161 60
-235 l39 -56 -25 -29 c-72 -86 -95 -208 -60 -310 37 -108 156 -221 321 -303
117 -58 196 -86 354 -126 234 -58 358 -71 682 -70 310 0 451 15 665 70 362 92
611 251 672 429 35 102 12 224 -60 310 l-25 29 39 56 c43 62 74 164 64 211 -6
26 -2 35 27 63 81 78 76 229 -10 309 -27 26 -29 32 -21 60 16 55 10 178 -12
257 -104 376 -491 643 -1034 715 -114 14 -389 25 -485 19z m418 -105 c553 -60
936 -318 1018 -685 30 -136 2 -234 -92 -328 -287 -287 -1014 -422 -1649 -305
-385 71 -685 227 -775 405 -34 67 -35 197 -1 299 111 338 449 558 941 614 110
12 446 13 558 0z m-1567 -986 c13 -21 46 -62 74 -92 43 -47 47 -53 25 -48 -14
3 -50 11 -80 18 -102 21 -117 44 -75 114 14 25 28 45 30 45 2 0 14 -17 26 -37z
m2655 -49 c21 -32 21 -107 0 -139 -21 -32 -82 -48 -157 -39 -32 4 -62 10 -64
14 -3 4 19 26 48 48 30 22 74 63 98 91 24 27 47 50 51 51 4 0 15 -12 24 -26z
m-2176 -287 c80 -29 165 -53 340 -94 41 -9 -255 -64 -312 -58 -121 14 -212 95
-246 217 l-10 37 66 -33 c37 -18 110 -49 162 -69z m-336 72 c14 -11 26 -28 26
-38 0 -35 61 -139 104 -179 114 -105 218 -122 451 -76 160 31 324 38 364 15
14 -8 53 -38 88 -67 155 -131 253 -135 403 -14 41 33 106 76 144 95 85 43 140
45 238 10 109 -39 186 -29 251 33 35 33 73 105 82 155 8 42 11 43 105 22 36
-8 91 -14 123 -15 71 0 73 -10 11 -79 -275 -306 -1128 -444 -1824 -295 -272
58 -497 161 -617 281 -48 47 -52 70 -27 133 18 46 38 51 78 19z m2033 -106
c-9 -15 -27 -39 -41 -52 -22 -21 -32 -23 -80 -18 -60 6 -122 32 -96 40 155 51
226 71 228 65 2 -4 -3 -19 -11 -35z m-557 -101 c-13 -9 -43 -32 -65 -49 -124
-100 -164 -111 -243 -68 -27 15 -70 48 -95 73 l-46 47 112 -3 c62 -1 159 1
217 6 156 14 149 14 120 -6z m-1457 -215 c21 -16 57 -86 132 -257 57 -129 102
-236 100 -238 -11 -11 -176 91 -233 143 -97 89 -134 186 -101 272 12 32 59
103 68 103 3 0 19 -10 34 -23z m2380 -14 c80 -117 59 -225 -67 -340 -54 -50
-226 -156 -226 -140 0 23 217 486 233 499 30 24 31 23 60 -19z m-293 -245
c-40 -90 -79 -175 -87 -191 l-14 -28 -60 47 c-72 55 -214 145 -258 164 -17 7
-31 15 -31 19 0 3 39 14 88 23 116 23 271 68 357 105 39 16 72 28 73 27 2 -1
-29 -76 -68 -166z m-1808 120 c42 -16 135 -44 207 -62 72 -18 133 -35 136 -37
2 -2 -38 -30 -88 -61 -51 -32 -120 -78 -153 -103 l-62 -45 -72 163 c-93 208
-87 192 -64 183 10 -4 54 -21 96 -38z m1247 -165 c87 -35 188 -93 306 -176
l99 -71 -29 -12 c-49 -20 -252 -62 -385 -80 -152 -21 -536 -24 -685 -5 -129
16 -321 54 -410 82 l-70 21 30 25 c74 60 224 159 308 203 l92 48 340 -5 c333
-5 341 -6 404 -30z"/>
<path d="M2539 3679 c-22 -43 1 -64 95 -88 125 -31 156 -26 156 25 0 31 -14
38 -112 63 -109 26 -124 26 -139 0z"/>
<path d="M2106 3594 c-27 -26 -19 -43 56 -120 55 -57 78 -74 99 -74 32 0 54
29 44 59 -9 29 -141 151 -163 151 -11 0 -28 -7 -36 -16z"/>
<path d="M2867 3416 c-92 -39 -100 -45 -95 -81 5 -46 34 -47 133 -6 95 39 119
62 104 99 -12 31 -47 28 -142 -12z"/>
<path d="M1686 3356 c-86 -34 -109 -57 -95 -93 12 -31 40 -29 141 8 105 40
129 66 92 103 -22 22 -47 19 -138 -18z"/>
<path d="M3303 3368 c-13 -23 -32 -201 -23 -219 21 -38 75 -29 85 14 17 80 25
190 14 203 -14 17 -65 19 -76 2z"/>
<path d="M2369 3309 c-22 -43 1 -64 95 -88 125 -31 156 -26 156 25 0 31 -14
38 -112 63 -109 26 -124 26 -139 0z"/>
<path d="M1886 3224 c-23 -22 -20 -51 7 -67 12 -8 63 -23 114 -32 101 -20 123
-15 123 30 0 33 -16 42 -118 65 -110 24 -107 24 -126 4z"/>
<path d="M2860 3185 c-25 -31 -3 -59 91 -114 94 -56 108 -58 132 -19 17 26 1
46 -80 98 -80 51 -121 61 -143 35z"/>
<path d="M2217 3026 c-92 -39 -100 -45 -95 -81 5 -46 34 -47 133 -6 95 39 119
62 104 99 -12 31 -47 28 -142 -12z"/>
<path d="M2662 2899 c-74 -24 -95 -35 -104 -55 -10 -21 -8 -28 10 -46 l21 -22
93 29 c100 31 128 48 128 76 0 16 -36 50 -50 48 -3 0 -47 -14 -98 -30z"/>
</g>
</svg>
